<?xml version="1.0" encoding="UTF-8"?>
<svg width="300" height="450" version="1.1" viewBox="0 0 300 450" xmlns="http://www.w3.org/2000/svg">
 <rect width="300" height="450" fill="#2c3e50"/>
 <g transform="matrix(1.3 0 0 1.3 -45 -67.5)">
  <path d="m150 150c-19.33 0-35 15.67-35 35s15.67 35 35 35 35-15.67 35-35-15.67-35-35-35zm0 10c13.81 0 25 11.19 25 25s-11.19 25-25 25-25-11.19-25-25 11.19-25 25-25z" fill="#ecf0f1"/>
  <path d="m150 230c-30.376 0-55 24.624-55 55v15h110v-15c0-30.376-24.624-55-55-55z" fill="#ecf0f1"/>
 </g>
 <text x="150" y="100" text-anchor="middle" fill="#ecf0f1" font-family="Arial" font-size="24">No Poster Available</text>
</svg>
